<svg width="268" height="86" viewBox="0 0 268 86" fill="none" xmlns="http://www.w3.org/2000/svg">
<path d="M28.2219 19C28.2219 33.4592 32.8572 46.9668 36.1912 60.7778C38.0436 68.451 40.3316 76.3916 40.9325 84.3333C41.094 86.4686 42.4769 81.6975 42.7482 81" stroke="black" stroke-linecap="round"/>
<path d="M44.5642 23C44.5642 36.3441 48.5074 48.4855 51.323 61.3333C52.309 65.8327 53.6111 70.9294 55.459 75" stroke="black" stroke-linecap="round"/>
<path d="M47.2878 47C56.2474 47 64.8835 47.9536 66.2527 35.8889C67.004 29.2687 65.1009 20.52 59.9983 16.2222C53.8124 11.0119 46.3261 8.04835 39.1672 4.5C33.5496 1.71563 29.0027 1 22.7746 1C17.4701 1 14.9321 0.97698 11.8799 6.5C6.77575 15.736 3.26434 26.2649 2.09478 37C1.02901 46.7824 -1.55898 53.833 6.48294 59C13.8592 63.7393 27.3965 63.0057 35.4852 60.5C56.7083 53.9254 76.836 38 99.4413 38C101.674 38 102.171 42.8171 102.468 44.7778C103.372 50.7561 100.245 57.407 95.4063 60C90.1184 62.8335 85.496 62.0157 83.8054 56.2222C82.7674 52.6655 81.1204 45.9606 84.0576 43.4444C89.6901 38.6192 98.0782 35.5759 105.393 36C110.084 36.2719 112.296 49 116.742 49C123.158 49 121.429 43.0473 121.786 37.9444C122.425 28.7872 124.668 19.6299 133.74 20C137.526 20.1545 139.598 25.8209 141.205 28.8889C142.644 31.6372 143.233 38.1659 143.575 32.8889C144.406 20.0787 150.274 17 160.775 17C164.778 17 169.155 28.6277 169.803 32.5556C170.957 39.5477 171.746 34.0209 173.284 30C174.409 27.057 173.337 22 177.319 22C183.04 22 188.661 21.0861 194.367 21C195.693 20.98 203.463 20.5258 203.244 21.2222C201.005 28.3464 190.935 31.5061 185.893 35.7778C185.76 35.8907 178.939 42.131 180.244 42.7778C185.669 45.4667 197.076 42.9842 202.79 42.5C208.392 42.0254 214.196 41.5174 219.737 40.5C221.813 40.119 224.432 40.9616 224.327 39C224.18 36.2344 224.192 33.3166 224.327 30.5556C224.696 23.0483 236.611 21.1799 241.527 19.5556C243.947 18.7558 253.706 14.5813 256.457 17.6111C261.167 22.799 251.732 30.9229 248.588 32.4444C240.483 36.3671 232.238 38 223.47 38C221.754 38 219.871 38.2518 219.788 35.7778C219.614 30.5995 221.779 29.1764 225.941 27.2222C230.223 25.2119 234.171 24.4032 238.753 23.9444C241.936 23.6257 245.074 21.2447 248.387 22.0556C252.295 23.0121 250.656 42.055 250.656 45.5556C250.656 51.759 252.892 51.5797 258.626 50.7778C261.427 50.386 264.192 49 266.998 49" stroke="black" stroke-linecap="round"/>
</svg>
