<svg width="297" height="65" viewBox="0 0 297 65" fill="none" xmlns="http://www.w3.org/2000/svg">
<path d="M53 48C62.8685 48 72.3808 48.9536 73.8889 36.8889C74.7164 30.2687 72.6202 21.52 67 17.2222C60.1865 12.0119 51.9408 9.04835 44.0556 5.5C37.8681 2.71563 32.8599 2 26 2C20.1573 2 17.3618 1.97698 14 7.5C8.37808 16.736 4.51044 27.2649 3.22223 38C2.04834 47.7824 -0.802197 54.833 8.05556 60C16.1801 64.7393 31.0908 64.0057 40 61.5C63.3762 54.9254 85.5459 39 110.444 39C112.903 39 113.451 43.8171 113.778 45.7778C114.774 51.7561 111.33 58.407 106 61C100.176 63.8335 95.0844 63.0157 93.2222 57.2222C92.079 53.6655 90.2649 46.9606 93.5 44.4444C99.7039 39.6192 108.943 36.5759 117 37C122.167 37.2719 124.603 50 129.5 50C136.567 50 134.663 44.0473 135.056 38.9444C135.76 29.7872 138.231 20.6299 148.222 21C152.393 21.1545 154.674 26.8209 156.444 29.8889C158.03 32.6372 158.679 39.1659 159.056 33.8889C159.971 21.0787 166.434 18 178 18C182.41 18 187.23 29.6277 187.944 33.5556C189.216 40.5477 190.085 35.0209 191.778 31C193.017 28.057 191.837 23 196.222 23C202.524 23 208.715 22.0861 215 22C216.461 21.98 225.019 21.5258 224.778 22.2222C222.312 29.3464 211.22 32.5061 205.667 36.7778C205.52 36.8907 198.007 43.131 199.444 43.7778C205.42 46.4667 217.984 43.9842 224.278 43.5C230.448 43.0254 236.84 42.5174 242.944 41.5C245.231 41.119 248.115 41.9616 248 40C247.837 37.2344 247.851 34.3166 248 31.5556C248.406 24.0483 261.53 22.1799 266.944 20.5556C269.61 19.7558 280.359 15.5813 283.389 18.6111C288.577 23.799 278.185 31.9229 274.722 33.4444C265.795 37.3671 256.714 39 247.056 39C245.165 39 243.092 39.2518 243 36.7778C242.808 31.5995 245.193 30.1764 249.778 28.2222C254.494 26.2119 258.843 25.4032 263.889 24.9444C267.395 24.6257 270.851 22.2447 274.5 23.0556C278.804 24.0121 277 43.055 277 46.5556C277 52.759 279.463 52.5797 285.778 51.7778C288.863 51.386 291.909 50 295 50" stroke="white" stroke-width="3" stroke-linecap="round"/>
</svg>
